<svg width="32" height="38" viewBox="0 0 62 48" fill="none" xmlns="http://www.w3.org/2000/svg">
<path fill-rule="evenodd" clip-rule="evenodd" d="M4.84362 23.9999C4.84362 24.5966 5.14982 25.1689 5.69484 25.5909C6.23987 26.0129 6.97909 26.2499 7.74987 26.2499H47.2361L36.6961 34.4099C36.4106 34.6159 36.1816 34.8643 36.0227 35.1403C35.8639 35.4163 35.7785 35.7142 35.7716 36.0163C35.7647 36.3184 35.8365 36.6185 35.9826 36.8987C36.1288 37.1789 36.3464 37.4334 36.6223 37.647C36.8983 37.8607 37.2271 38.0291 37.5889 38.1423C37.9508 38.2554 38.3384 38.311 38.7286 38.3057C39.1189 38.3004 39.5037 38.2342 39.8602 38.1112C40.2167 37.9883 40.5376 37.811 40.8036 37.5899L56.3036 25.5899C56.8479 25.168 57.1536 24.5962 57.1536 23.9999C57.1536 23.4037 56.8479 22.8318 56.3036 22.4099L40.8036 10.4099C40.2527 10.0125 39.524 9.7961 38.7711 9.80638C38.0182 9.81667 37.2998 10.0528 36.7673 10.465C36.2349 10.8773 35.9299 11.4334 35.9166 12.0163C35.9033 12.5992 36.1828 13.1634 36.6961 13.5899L47.2361 21.7499H7.74987C6.97909 21.7499 6.23987 21.987 5.69484 22.4089C5.14982 22.8309 4.84362 23.4032 4.84362 23.9999Z" fill="#013220"/>
</svg>
