<?xml version="1.0" encoding="utf-8"?>
<!-- Generator: Adobe Illustrator 15.1.0, SVG Export Plug-In . SVG Version: 6.00 Build 0)  -->
<!DOCTYPE svg PUBLIC "-//W3C//DTD SVG 1.1//EN" "http://www.w3.org/Graphics/SVG/1.1/DTD/svg11.dtd">
<svg version="1.1" id="Layer_1" xmlns="http://www.w3.org/2000/svg" xmlns:xlink="http://www.w3.org/1999/xlink" x="0px" y="0px"
	 width="495px" height="246px" viewBox="0 0 495 246" enable-background="new 0 0 495 246" xml:space="preserve">
<g>
	<g>
		<defs>
			<rect id="SVGID_1_" x="9.243" y="9.589" width="467.757" height="231.687"/>
		</defs>
		<clipPath id="SVGID_2_">
			<use xlink:href="#SVGID_1_"  overflow="visible"/>
		</clipPath>
		<path clip-path="url(#SVGID_2_)" fill="#F05322" d="M474.761,164.325c-1.843-19.237-18.443-23.059-28.062-23.059
			c-15.156,0-28.329,9.618-28.329,24.771c0,9.882,7.901,16.076,17.391,19.106c13.969,5.401,19.371,6.062,19.371,11.068
			c0,3.559-3.954,5.666-7.645,5.666c-0.921,0-7.377,0-8.3-6.72h-21.739c1.975,19.237,18.709,24.244,29.779,24.244
			c16.206,0,29.777-9.484,29.777-25.561c0-15.815-13.178-19.502-25.564-22.928c-5.798-1.712-11.197-3.952-11.197-7.247
			c0-1.976,1.579-4.876,6.19-4.876c6.454,0,6.721,3.951,6.852,5.535L474.761,164.325L474.761,164.325z M390.566,189.095
			c-2.374,4.48-6.722,9.752-15.812,9.752c-10.41,0-17.396-7.906-17.396-18.58c0-5.271,1.713-10.012,4.745-13.439
			c3.161-3.425,7.508-5.404,12.65-5.139c9.09,0,13.438,5.271,15.812,10.276h22.135c-3.688-17.919-19.368-30.699-38.738-30.699
			c-21.876,0-38.609,17.393-38.609,38.871c0,21.74,16.999,39.132,39.138,39.132c19.765,0,34.389-13.572,38.343-30.174H390.566z
			 M306.501,216.9h21.873V143.77h-21.873V216.9z M306.501,135.996h21.873v-16.602h-21.873V135.996z M268.684,216.9h21.875v-56.527
			h10.538V143.77h-10.538v-24.377h-21.875v24.377h-10.805v16.604h10.805V216.9z M235.348,180.4c0,9.223-6.851,18.58-18.314,18.58
			c-5.139,0-9.75-2.11-13.045-5.403c-3.295-3.296-5.271-7.904-5.271-13.044c0-5.27,1.976-10.017,5.14-13.31
			c3.294-3.425,7.907-5.533,13.176-5.533c11.991,0,18.314,10.013,18.314,18.577V180.4L235.348,180.4z M177.769,241.275h21.873V216.9
			v-6.589c2.634,2.766,8.827,9.091,22.003,9.091c20.819,0,35.576-17.262,35.576-38.345c0-16.997-9.747-39.791-35.705-39.791
			c-11.201,0-18.449,5.007-23.191,10.54v-8.036h-20.554v97.505H177.769z M93.833,167.883c0-13.704,9.355-28.46,26.617-28.46
			c17.92,0,26.485,16.203,26.485,28.856c0,12.516-8.565,28.591-26.223,28.591c-16.733,0-26.879-13.968-26.879-28.855V167.883z
			 M68.93,169.33c0,25.036,20.556,49.413,51.256,49.413c30.306,0,51.652-23.453,51.652-50.597c0-27.145-21.479-50.598-51.521-50.598
			c-26.879,0-51.388,19.765-51.388,51.651V169.33z"/>
	</g>
	<g>
		<defs>
			<rect id="SVGID_3_" x="9.243" y="9.589" width="467.757" height="231.687"/>
		</defs>
		<clipPath id="SVGID_4_">
			<use xlink:href="#SVGID_3_"  overflow="visible"/>
		</clipPath>
		<path clip-path="url(#SVGID_4_)" fill="#231F20" d="M368.165,70.463c0-10.671,8.038-18.444,17.526-18.444
			c9.489,0,17.523,7.773,17.523,18.444c0,10.673-8.034,18.448-17.523,18.448c-9.488,0-17.526-7.773-17.526-18.314V70.463z
			 M346.294,70.463c0,17.92,12.78,38.874,39.397,38.874c26.616,0,39.397-20.954,39.397-38.874c0-17.92-12.781-38.871-39.397-38.871
			c-26.617,0-39.397,20.951-39.397,38.741V70.463L346.294,70.463z M306.372,107.094h21.873V67.829
			c0-10.277,5.267-14.364,16.469-14.364h0.791V31.462c-12.651,0-16.472,6.719-18.579,10.671v-8.168h-20.554V107.094z
			 M268.554,107.094h21.875V50.568h10.538V33.966h-10.538V9.589h-21.875v24.378h-10.806v16.602h10.806V107.094z M235.218,79.291
			c-2.37,4.48-6.721,9.752-15.811,9.752c-10.409,0-17.392-7.906-17.392-18.58c0-5.271,1.712-10.012,4.742-13.439
			c3.162-3.426,7.513-5.404,12.65-5.139c9.089,0,13.441,5.271,15.811,10.276h22.138c-3.69-17.919-19.37-30.699-38.739-30.699
			c-21.873,0-38.606,17.394-38.606,38.87c0,21.74,16.997,39.132,39.133,39.132c19.765,0,34.391-13.572,38.343-30.174H235.218z
			 M120.583,61.504c0.527-3.426,5.007-11.596,16.339-11.596c11.331,0,15.812,8.17,16.339,11.596H120.583z M174.738,78.107
			c1.715-13.439-1.053-25.168-10.277-35.049c-6.851-7.247-16.47-11.595-27.671-11.595c-22.268,0-38.342,18.839-38.342,39.266
			c0,21.74,17.787,38.736,38.739,38.736c7.509,0,14.757-2.24,20.817-6.587c6.194-4.217,11.333-10.542,14.889-18.71h-22.4
			c-2.635,3.821-6.324,6.85-13.307,6.85c-8.565,0-15.946-5.139-16.866-12.912L174.738,78.107L174.738,78.107z M71.304,107.094
			h21.873V9.589H71.304V107.094z M9.243,107.094h55.21V85.222H34.146V68.488h29.385V46.615H34.146V31.463h30.307V9.589H9.243
			V107.094z"/>
	</g>
</g>
</svg>
