<?xml version="1.0" encoding="UTF-8"?>
<svg version="1.1" xmlns="http://www.w3.org/2000/svg" width="1600" height="1600">
<path d="M0 0 C1.98 0 3.96 0 6 0 C6 0.66 6 1.32 6 2 C7.0828125 2.3403125 7.0828125 2.3403125 8.1875 2.6875 C11.57685109 4.26919718 13.5424688 6.20114502 16 9 C16.33 9.99 16.66 10.98 17 12 C17.928125 12.37125 17.928125 12.37125 18.875 12.75 C22.11621915 14.6565995 22.83853573 17.59766716 24 21 C24.2578125 21.74636719 24.515625 22.49273438 24.78125 23.26171875 C30.57577645 41.25372337 31.11919051 61.97277257 23.37890625 79.578125 C20.30825377 84.971339 16.39776225 90.60223775 12 95 C18.51805498 95.88882568 22.74782906 93.39013532 28.42578125 90.3125 C31 89 31 89 33 89 C33.80329528 96.5509756 30.74000885 101.35497683 26.28515625 107.28125 C23.12667353 111.09631009 20.80365721 113.44587561 16 115 C15.67 115.99 15.34 116.98 15 118 C13.40527344 119.08740234 13.40527344 119.08740234 11.359375 120.0859375 C10.61816406 120.45976563 9.87695312 120.83359375 9.11328125 121.21875 C7.55345168 121.98190629 5.99355718 122.74492988 4.43359375 123.5078125 C-0.1941134 125.84164754 -3.56036079 128.10632841 -7 132 C-2.71 132 1.58 132 6 132 C4.91542997 136.33828014 3.83678747 137.23857869 0.375 139.8515625 C-7.53445656 143.67620103 -16.46204215 143.40553058 -25.0625 143.625 C-26.30966797 143.66367187 -27.55683594 143.70234375 -28.84179688 143.7421875 C-31.89430704 143.83575103 -34.94713244 143.91893154 -38 144 C-32.39 144 -26.78 144 -21 144 C-20.505 146.475 -20.505 146.475 -20 149 C-20.515625 149.103125 -21.03125 149.20625 -21.5625 149.3125 C-24.21474332 150.00086961 -24.21474332 150.00086961 -27.4375 151.5 C-34.14677318 154.32495713 -41.15932203 154.53996388 -48.34375 155.16210938 C-56.30233486 155.90370478 -63.65210733 157.04495755 -70.875 160.625 C-75.69364162 163 -75.69364162 163 -79 163 C-77.93185817 156.32411356 -73.77451795 151.44898264 -69 147 C-68.505 146.46246094 -68.01 145.92492187 -67.5 145.37109375 C-61.17234379 138.60558633 -53.71503504 133.28615737 -46.32714844 127.75390625 C-43.95706531 125.96764134 -41.60520396 124.15971139 -39.2578125 122.34375 C-38.49202881 121.75231201 -37.72624512 121.16087402 -36.93725586 120.55151367 C-35.4677823 119.4156417 -33.99977837 118.27786522 -32.53344727 117.13793945 C-31.86627686 116.62448975 -31.19910645 116.11104004 -30.51171875 115.58203125 C-29.92865967 115.13061768 -29.34560059 114.6792041 -28.74487305 114.21411133 C-26.90365961 112.93296478 -25.02697632 111.95470501 -23 111 C-23 110.34 -23 109.68 -23 109 C-23.5347998 109.39380859 -24.06959961 109.78761719 -24.62060547 110.19335938 C-27.0351711 111.9671546 -29.45498576 113.73364666 -31.875 115.5 C-32.71675781 116.12003906 -33.55851563 116.74007812 -34.42578125 117.37890625 C-35.23144531 117.96542969 -36.03710938 118.55195312 -36.8671875 119.15625 C-37.61081543 119.70087891 -38.35444336 120.24550781 -39.12060547 120.80664062 C-41 122 -41 122 -43 122 C-43 122.66 -43 123.32 -43 124 C-44.62060547 125.32861328 -44.62060547 125.32861328 -46.8671875 126.8203125 C-47.67027344 127.35527344 -48.47335937 127.89023437 -49.30078125 128.44140625 C-50.15027344 128.99699219 -50.99976563 129.55257812 -51.875 130.125 C-53.13763672 130.96998047 -53.13763672 130.96998047 -54.42578125 131.83203125 C-60.73324001 136 -60.73324001 136 -63 136 C-63 136.66 -63 137.32 -63 138 C-63.680625 138.37125 -64.36125 138.7425 -65.0625 139.125 C-70.81428473 142.79635196 -74.55898608 148.20460814 -78 154 C-78.66 154 -79.32 154 -80 154 C-80.2475 154.66 -80.495 155.32 -80.75 156 C-81.72518186 158.34043646 -82.76779066 160.50917751 -83.9375 162.75 C-86.122173 167.03752305 -87.56591112 171.41091559 -89 176 C-83.72 176 -78.44 176 -73 176 C-73 177.98 -73 179.96 -73 182 C-75.64 182.33 -78.28 182.66 -81 183 C-77.73326667 191.99582848 -73.96150263 200.6861728 -69.94750977 209.37011719 C-69.56651123 210.2005957 -69.1855127 211.03107422 -68.79296875 211.88671875 C-68.4477417 212.63139404 -68.10251465 213.37606934 -67.74682617 214.14331055 C-67 216 -67 216 -67 218 C-66.34 218 -65.68 218 -65 218 C-64.83781982 217.47647949 -64.67563965 216.95295898 -64.50854492 216.41357422 C-62.18078362 209.14676565 -59.14747911 202.25583669 -56.05273438 195.2890625 C-55.66021484 194.391875 -55.26769531 193.4946875 -54.86328125 192.5703125 C-54.32634644 191.36012451 -54.32634644 191.36012451 -53.77856445 190.12548828 C-52.8280248 187.90777195 -52.8280248 187.90777195 -53 185 C-55.97 184.01 -58.94 183.02 -62 182 C-62 180.02 -62 178.04 -62 176 C-52.76 176 -43.52 176 -34 176 C-34 177.98 -34 179.96 -34 182 C-34.9075 182.391875 -35.815 182.78375 -36.75 183.1875 C-42.42021405 186.34973476 -44.70665122 191.06461078 -47.390625 196.8203125 C-47.84975533 197.7993605 -47.84975533 197.7993605 -48.31816101 198.79818726 C-49.30270442 200.90382854 -50.27676367 203.01411173 -51.25 205.125 C-51.92242008 206.57105067 -52.59502817 208.01701393 -53.26782227 209.46289062 C-58.09437204 219.8723291 -62.70753217 230.35797114 -67 241 C-71.62 241 -76.24 241 -81 241 C-81.71542969 239.37578125 -82.43085937 237.7515625 -83.16796875 236.078125 C-85.54861749 230.68368486 -87.95175192 225.29952638 -90.36428833 219.91929626 C-92.12667991 215.98077926 -93.8570143 212.02998596 -95.56416321 208.06723022 C-96.672438 205.50750186 -97.80216887 202.95760463 -98.93643188 200.40930176 C-99.7360864 198.5940839 -100.50929753 196.76729073 -101.28198242 194.94042969 C-104.39369771 187.81071841 -104.39369771 187.81071841 -110.390625 183.21484375 C-111.58171875 182.81394531 -112.7728125 182.41304687 -114 182 C-114 180.02 -114 178.04 -114 176 C-108.06 176 -102.12 176 -96 176 C-95.67 173.36 -95.34 170.72 -95 168 C-93.68279573 161.90384799 -90.81623882 156.36426013 -88.0625 150.8125 C-87.55867798 149.79639648 -87.55867798 149.79639648 -87.04467773 148.75976562 C-84.95227371 144.63466827 -82.76682461 140.7141299 -80 137 C-79.34 137 -78.68 137 -78 137 C-77.73832031 136.4225 -77.47664062 135.845 -77.20703125 135.25 C-74.11282925 129.48216714 -69.14849993 124.92911837 -64 121 C-63.27425781 120.26523437 -62.54851563 119.53046875 -61.80078125 118.7734375 C-58.60558195 115.60943261 -55.23747451 112.72200866 -51.8125 109.8125 C-46.207114 105.02014561 -40.93516979 100.08244857 -35.85546875 94.73046875 C-34 93 -34 93 -32 93 C-31.896875 92.360625 -31.79375 91.72125 -31.6875 91.0625 C-31.460625 90.381875 -31.23375 89.70125 -31 89 C-30.01 88.67 -29.02 88.34 -28 88 C-26.99083967 86.23408113 -26.99083967 86.23408113 -26 84 C-24 80.75 -24 80.75 -22 78 C-21.34 78 -20.68 78 -20 78 C-19.896875 77.195625 -19.79375 76.39125 -19.6875 75.5625 C-19.15179345 72.78656607 -18.51060924 70.50384835 -17.5625 67.875 C-15.64526551 62.37704814 -14.82658849 56.74722114 -14 51 C-12.68 50.67 -11.36 50.34 -10 50 C-9.71125 50.969375 -9.4225 51.93875 -9.125 52.9375 C-8.35785318 56.10664203 -8.35785318 56.10664203 -6 57 C-5.81824219 56.443125 -5.63648438 55.88625 -5.44921875 55.3125 C-5.19785156 54.549375 -4.94648437 53.78625 -4.6875 53 C-4.41421875 52.16855469 -4.1409375 51.33710937 -3.859375 50.48046875 C-3.1299415 48.37505841 -2.30841991 46.36093918 -1.4375 44.3125 C3.83061708 30.15269323 1.86162568 14.62705888 0 0 Z M1 80 C2 82 2 82 2 82 Z M-2 85 C-2 88 -2 88 -2 88 Z M-5 89 C-5 92 -5 92 -5 92 Z M-8 93 C-8.33 93.66 -8.66 94.32 -9 95 C-8.34 95 -7.68 95 -7 95 C-7.33 94.34 -7.66 93.68 -8 93 Z M-10 95 C-11.04800781 96.06541016 -11.04800781 96.06541016 -12.1171875 97.15234375 C-13.48230469 98.53099609 -13.48230469 98.53099609 -14.875 99.9375 C-15.77992188 100.85402344 -16.68484375 101.77054688 -17.6171875 102.71484375 C-20 105 -20 105 -22 106 C-22 106.66 -22 107.32 -22 108 C-18.31930113 106.46356148 -16.01224796 104.21849055 -13.25 101.375 C-12.45078125 100.55773437 -11.6515625 99.74046875 -10.828125 98.8984375 C-10.22484375 98.27195312 -9.6215625 97.64546875 -9 97 C-9.33 96.34 -9.66 95.68 -10 95 Z " fill="#800020" transform="translate(643,666)"/>
<path d="M0 0 C2.63142038 0.51318157 5.02698474 0.62277717 7.70581055 0.6262207 C8.69057373 0.6281543 9.67533691 0.63008789 10.68994141 0.63208008 C11.73029541 0.62756836 12.77064941 0.62305664 13.8425293 0.6184082 C15.45623413 0.61550781 15.45623413 0.61550781 17.10253906 0.61254883 C24.33128816 0.5736119 31.47383311 0.25424146 38.68237305 -0.28393555 C45.62724969 -0.68582181 52.57641628 -0.58404541 59.5300293 -0.5065918 C60.0250293 3.9484082 60.0250293 3.9484082 60.5300293 8.4934082 C61.06112305 8.01129883 61.5922168 7.52918945 62.1394043 7.0324707 C62.84581055 6.40083008 63.5522168 5.76918945 64.2800293 5.1184082 C65.32416992 4.17868164 65.32416992 4.17868164 66.3894043 3.2199707 C71.48985475 -0.89389627 75.85835569 -1.04351633 82.31518555 -0.96362305 C86.4482361 -0.37605693 88.46115772 0.9837721 91.3581543 3.88793945 C94.2827227 7.89459817 94.09620486 12.76179817 93.5300293 17.4934082 C91.66100435 21.5305021 90.10560679 23.13226154 86.3425293 25.4934082 C81.68017547 26.71632068 77.93736395 26.53478995 73.5300293 24.4934082 C71.32807751 22.28164817 70.59124883 21.03214013 70.23706055 17.9152832 C70.27186523 17.03356445 70.30666992 16.1518457 70.3425293 15.2434082 C70.38313477 13.90536133 70.38313477 13.90536133 70.42456055 12.5402832 C70.45936523 11.86481445 70.49416992 11.1893457 70.5300293 10.4934082 C66.46194143 12.34253905 63.24660975 13.9009685 60.5300293 17.4934082 C60.1564984 20.41727294 60.0152826 22.95449476 60.0690918 25.87231445 C60.07000824 26.6807933 60.07092468 27.48927216 60.0718689 28.32225037 C60.07789983 30.02771899 60.09363076 31.73317727 60.1184082 33.43847656 C60.15495058 36.05028239 60.15942722 38.66067012 60.15893555 41.27270508 C60.16876589 42.93092047 60.18042254 44.58912626 60.1940918 46.24731445 C60.19631744 47.02861221 60.19854309 47.80990997 60.20083618 48.61488342 C60.26762496 52.42355716 60.36801548 54.25038749 62.5300293 57.4934082 C64.94610347 58.29139038 64.94610347 58.29139038 67.6550293 58.6809082 C69.02014648 58.91874023 69.02014648 58.91874023 70.4128418 59.16137695 C71.11151367 59.27094727 71.81018555 59.38051758 72.5300293 59.4934082 C72.5300293 61.8034082 72.5300293 64.1134082 72.5300293 66.4934082 C57.6800293 66.4934082 42.8300293 66.4934082 27.5300293 66.4934082 C27.5300293 69.1334082 27.5300293 71.7734082 27.5300293 74.4934082 C26.54946521 80.46872063 23.48327427 84.2103892 18.8503418 87.9543457 C9.01807622 94.47608415 -1.16652502 94.69778567 -12.5949707 94.7434082 C-13.8634082 94.7640332 -15.1318457 94.7846582 -16.4387207 94.8059082 C-27.66280918 94.8521931 -37.93424018 93.8037687 -46.2824707 85.7434082 C-48.70312603 81.15690338 -48.93309964 77.09892185 -47.5324707 72.2434082 C-44.0350377 67.5801642 -39.56515777 65.94237686 -33.9699707 64.7434082 C-33.1449707 64.6609082 -32.3199707 64.5784082 -31.4699707 64.4934082 C-32.3980957 63.9159082 -33.3262207 63.3384082 -34.2824707 62.7434082 C-38.49678644 59.7685971 -40.02545765 58.09365521 -41.4074707 53.1184082 C-41.48706216 48.50210371 -40.55787543 46.8901034 -37.4699707 43.4934082 C-35.16205759 42.18164562 -32.99826501 41.368587 -30.4699707 40.4934082 C-31.04489258 40.06801758 -31.61981445 39.64262695 -32.2121582 39.2043457 C-43.51221895 30.64132389 -43.51221895 30.64132389 -44.4699707 25.4934082 C-45.00594007 19.48650623 -45.05709164 14.58480566 -41.4699707 9.4934082 C-31.43535962 -1.88486875 -14.12574055 -2.89719399 0 0 Z M-18.7824707 7.0559082 C-22.2736992 12.09879381 -22.98851209 17.4783281 -22.4699707 23.4934082 C-20.84822218 30.28667107 -20.84822218 30.28667107 -16.4699707 35.4934082 C-12.76162003 35.96538011 -10.44209804 36.04515615 -7.1574707 34.1809082 C-3.54165169 28.42238162 -2.98472374 21.74023832 -4.0949707 15.1184082 C-5.11117654 11.10471471 -6.16412685 8.17382214 -9.4699707 5.4934082 C-13.38413409 4.86434623 -15.46449602 4.81403342 -18.7824707 7.0559082 Z M27.5300293 7.4934082 C27.5300293 8.1534082 27.5300293 8.8134082 27.5300293 9.4934082 C23.2400293 9.4934082 18.9500293 9.4934082 14.5300293 9.4934082 C15.0250293 10.6690332 15.5200293 11.8446582 16.0300293 13.0559082 C18.08307856 18.64531025 18.36813548 23.11506637 15.9050293 28.6184082 C12.42729284 34.88318085 7.72851504 37.70733292 1.10449219 39.83544922 C-3.3461358 40.97290227 -7.83615296 41.25072536 -12.4074707 41.5559082 C-14.27133688 41.68440683 -16.1346851 41.82073403 -17.99731445 41.96606445 C-19.21535767 42.04739624 -19.21535767 42.04739624 -20.45800781 42.13037109 C-22.69294243 42.33617514 -22.69294243 42.33617514 -24.4699707 44.4934082 C-24.151453 46.60161617 -24.151453 46.60161617 -23.4699707 48.4934082 C-15.6972295 50.29779455 -8.28240206 50.84851451 -0.32543945 50.97192383 C7.0894041 51.19711537 14.87045372 52.16663268 20.9675293 56.7434082 C23.94347674 59.9371079 25.08963357 62.41228698 26.5300293 66.4934082 C26.8600293 66.4934082 27.1900293 66.4934082 27.5300293 66.4934082 C27.5300293 64.1834082 27.5300293 61.8734082 27.5300293 59.4934082 C28.8912793 59.5862207 28.8912793 59.5862207 30.2800293 59.6809082 C33.42215261 59.68190148 33.42215261 59.68190148 35.69995117 58.5769043 C38.70305329 55.15795105 38.10042945 51.36710774 38.0612793 46.9699707 C38.0651062 46.03164398 38.06893311 45.09331726 38.07287598 44.1265564 C38.07559843 42.14108203 38.06821395 40.15557201 38.05151367 38.17016602 C38.03015645 35.13646968 38.05127917 32.10515454 38.0769043 29.0715332 C38.07426014 27.14184049 38.06913335 25.21214925 38.0612793 23.2824707 C38.06937622 22.37711578 38.07747314 21.47176086 38.08581543 20.53897095 C38.0242804 16.38658549 37.86943224 14.06110218 35.69995117 10.43237305 C33.01451708 8.03276486 31.07490408 7.73510421 27.5300293 7.4934082 Z M-22.4699707 67.4934082 C-26.34442014 73.53186005 -26.34442014 73.53186005 -26.4699707 80.4934082 C-23.90354789 84.20046338 -21.71479627 86.91157577 -17.4699707 88.4934082 C-11.22915834 89.10539208 -3.84678169 89.80502895 1.8425293 86.7434082 C5.94467158 83.30905653 6.37539972 81.88507437 6.9675293 76.5559082 C7.15559225 73.50443512 6.46079538 72.38571099 4.7722168 69.7590332 C-0.19342037 66.28906988 -4.88451011 66.95684775 -10.7824707 67.1809082 C-11.90459961 67.2034668 -13.02672852 67.22602539 -14.18286133 67.24926758 C-16.94659606 67.30807044 -19.70759624 67.39020419 -22.4699707 67.4934082 Z " fill="#FFFFFF" transform="translate(792.469970703125,840.506591796875)"/>
<path d="M0 0 C27.39 0 54.78 0 83 0 C83 8.25 83 16.5 83 25 C81.02 25 79.04 25 77 25 C75.09375 22.76953125 75.09375 22.76953125 73.5 19.8125 C70.39771724 14.46776895 67.62527679 10.81263839 62 8 C60.18828902 7.84693099 58.3716206 7.75053339 56.5546875 7.68359375 C55.58515137 7.64548584 54.61561523 7.60737793 53.61669922 7.56811523 C52.38193848 7.52501221 51.14717773 7.48190918 49.875 7.4375 C45.95625 7.293125 42.0375 7.14875 38 7 C38 18.22 38 29.44 38 41 C51.8005966 40.16918221 51.8005966 40.16918221 58 36 C59.65584522 33.31826714 59.65584522 33.31826714 60.8125 30.3125 C61.23144531 29.31863281 61.65039062 28.32476563 62.08203125 27.30078125 C62.38496094 26.54152344 62.68789063 25.78226563 63 25 C64.98 25 66.96 25 69 25 C69 37.87 69 50.74 69 64 C67.02 64 65.04 64 63 64 C62.69707031 63.16855469 62.39414062 62.33710937 62.08203125 61.48046875 C61.66308594 60.39378906 61.24414062 59.30710937 60.8125 58.1875 C60.40644531 57.10855469 60.00039063 56.02960937 59.58203125 54.91796875 C57.70137362 51.44920024 56.54236849 50.66807094 53 49 C50.33146704 48.63774319 47.85958571 48.40199569 45.1875 48.3125 C44.49462891 48.27833984 43.80175781 48.24417969 43.08789062 48.20898438 C41.39247151 48.12713656 39.69626542 48.06187635 38 48 C38.06884472 52.64530679 38.15679304 57.28971059 38.26245117 61.93432617 C38.29570188 63.51430243 38.32373346 65.09439752 38.34643555 66.67456055 C38.37998016 68.94631579 38.43229227 71.21698203 38.48828125 73.48828125 C38.49467117 74.19463211 38.5010611 74.90098297 38.50764465 75.6287384 C38.59152371 78.42747384 38.71092569 80.53106377 40.19873047 82.94458008 C42.66436298 84.38927096 44.4801844 84.38829631 47.33203125 84.3984375 C48.37810547 84.40230469 49.42417969 84.40617188 50.50195312 84.41015625 C51.59443359 84.39855469 52.68691406 84.38695312 53.8125 84.375 C54.89337891 84.38660156 55.97425781 84.39820313 57.08789062 84.41015625 C65.00446446 84.41362909 65.00446446 84.41362909 72 81 C74.04944633 78.57787509 74.04944633 78.57787509 75.625 75.75 C76.20636719 74.77933594 76.78773438 73.80867187 77.38671875 72.80859375 C78.18529297 71.41833984 78.18529297 71.41833984 79 70 C79.43957031 69.24847656 79.87914062 68.49695313 80.33203125 67.72265625 C81.23767967 66.15777259 82.12193127 64.58052372 83 63 C84.98 63 86.96 63 89 63 C89.1307155 69.72458606 88.93477639 76.41201604 88.5625 83.125 C88.52326416 83.88353271 88.48402832 84.64206543 88.44360352 85.42358398 C88.12032072 90.87967928 88.12032072 90.87967928 87 92 C84.29161914 92.09514592 81.60881487 92.12554932 78.90014648 92.11352539 C78.05143982 92.11367142 77.20273315 92.11381744 76.32830811 92.1139679 C73.50921109 92.11326848 70.69017929 92.10547478 67.87109375 92.09765625 C65.92196183 92.09579217 63.97282945 92.09436822 62.0236969 92.09336853 C56.88293168 92.08954255 51.74219453 92.07971159 46.60144043 92.06866455 C41.35994852 92.05845215 36.1184521 92.05387128 30.87695312 92.04882812 C20.58462306 92.03808939 10.29231386 92.02101201 0 92 C0 90.02 0 88.04 0 86 C0.69867188 85.86722656 1.39734375 85.73445312 2.1171875 85.59765625 C3.48230469 85.33275391 3.48230469 85.33275391 4.875 85.0625 C6.23238281 84.80146484 6.23238281 84.80146484 7.6171875 84.53515625 C9.99956317 84.10036299 9.99956317 84.10036299 12 83 C12 58.91 12 34.82 12 10 C6.02023754 7.37288383 6.02023754 7.37288383 0 6 C0 4.02 0 2.04 0 0 Z " fill="#FFFFFF" transform="translate(448,814)"/>
<path d="M0 0 C0.495 4.455 0.495 4.455 1 9 C1.59167969 8.51789062 2.18335938 8.03578125 2.79296875 7.5390625 C3.58316406 6.90742187 4.37335938 6.27578125 5.1875 5.625 C5.96480469 4.99851562 6.74210937 4.37203125 7.54296875 3.7265625 C12.78665705 0.04180856 17.21281503 -0.33954033 23.4375 -0.3125 C24.17548828 -0.32861328 24.91347656 -0.34472656 25.67382812 -0.36132812 C31.19405697 -0.366235 35.38431018 0.61921436 39.609375 4.46484375 C45.6077936 12.20937736 46.11994702 19.14945347 46.2109375 28.70703125 C46.23896593 30.3613387 46.26763001 32.01563548 46.296875 33.66992188 C46.33835286 36.25512844 46.37527877 38.84012647 46.40136719 41.42553711 C46.42884241 43.93644072 46.47465678 46.44646362 46.5234375 48.95703125 C46.52669037 49.73407913 46.52994324 50.51112701 46.53329468 51.3117218 C46.55438032 53.71669115 46.55438032 53.71669115 47 57 C49.91765 58.9451 51.62537285 59.45276317 55 60 C55 62.31 55 64.62 55 67 C41.8 67 28.6 67 15 67 C15 64.69 15 62.38 15 60 C15.969375 59.87625 16.93875 59.7525 17.9375 59.625 C18.948125 59.41875 19.95875 59.2125 21 59 C22.64366184 55.71267632 22.18455332 52.0634578 22.203125 48.44921875 C22.21167511 47.17278252 22.21167511 47.17278252 22.22039795 45.87055969 C22.22985298 44.06744634 22.23638392 42.26431567 22.24023438 40.46118164 C22.24992487 37.70883802 22.28093675 34.95724592 22.3125 32.20507812 C22.31903163 30.45312943 22.32428147 28.7011754 22.328125 26.94921875 C22.3404718 26.12822189 22.3528186 25.30722504 22.36553955 24.46134949 C22.34581197 19.37365199 21.77585274 15.77585274 18 12 C13.22090028 11.38626298 9.83481104 11.54464852 5.5625 13.875 C3.02945532 15.90859172 3.02945532 15.90859172 1 18 C0.77559162 20.74985124 0.67185165 23.39604856 0.6640625 26.1484375 C0.6574057 26.95737457 0.6507489 27.76631165 0.64389038 28.59976196 C0.63375638 30.31290409 0.62907359 32.02608575 0.62939453 33.73925781 C0.6250282 36.35808647 0.5887381 38.97522053 0.55078125 41.59375 C0.54491181 43.25780673 0.54094327 44.92187148 0.5390625 46.5859375 C0.52469147 47.36834808 0.51032043 48.15075867 0.49551392 48.95687866 C0.52560243 52.54607911 0.68165931 54.58204921 2.88818359 57.47900391 C4.99071383 58.99331181 6.45271263 59.6361018 9 60 C9 62.31 9 64.62 9 67 C-4.53 67 -18.06 67 -32 67 C-32 64.69 -32 62.38 -32 60 C-31.15115234 59.80083984 -31.15115234 59.80083984 -30.28515625 59.59765625 C-29.55167969 59.42105469 -28.81820313 59.24445312 -28.0625 59.0625 C-27.33160156 58.88847656 -26.60070313 58.71445312 -25.84765625 58.53515625 C-24.00030102 58.16112431 -24.00030102 58.16112431 -23 57 C-22.70670595 50.94551978 -22.68588076 44.88854173 -22.64990234 38.82763672 C-22.63335779 36.78292446 -22.60608764 34.73826968 -22.56787109 32.69384766 C-22.51307576 29.7487176 -22.49122224 26.80494634 -22.4765625 23.859375 C-22.44255844 22.49193146 -22.44255844 22.49193146 -22.40786743 21.09686279 C-22.42292213 16.56843019 -22.51718767 14.6279461 -25.35693359 10.93457031 C-28.04011135 8.97064083 -29.71748692 8.28135826 -33 8 C-33 5.69 -33 3.38 -33 1 C-21.97991499 0.16941486 -11.05016019 -0.12308347 0 0 Z " fill="#FFFFFF" transform="translate(1063,840)"/>
<path d="M0 0 C0.8863916 -0.01015137 1.7727832 -0.02030273 2.68603516 -0.03076172 C11.73823919 0.08854522 19.08321636 2.09133005 25.70703125 8.4375 C32.19900557 15.94063962 31.4375 22.1273948 31.4375 32.4375 C17.2475 32.4375 3.0575 32.4375 -11.5625 32.4375 C-9.93091468 45.92251413 -9.93091468 45.92251413 -2.0625 55.4375 C4.49899982 57.31221423 11.48432449 57.49220554 17.9375 55.1875 C22.90406486 51.98197009 22.90406486 51.98197009 26.4375 47.4375 C28.8125 47.6875 28.8125 47.6875 31.4375 48.4375 C32.6015625 50.484375 32.6015625 50.484375 33.4375 52.4375 C26.39896446 61.51297562 19.07746601 66.89837111 7.625 68.9375 C-4.46071462 70.2055094 -15.3525749 68.19223703 -25.5625 61.4375 C-31.82387239 56.16077891 -35.29300109 48.42929793 -36.5625 40.4375 C-37.34450396 29.80525383 -36.1289929 20.65068745 -29.21875 12.25 C-20.66913584 2.89381847 -12.56861603 0.10289583 0 0 Z M-7.375 8.5625 C-11.78757428 14.36188334 -11.5625 17.9370239 -11.5625 25.4375 C-5.2925 25.4375 0.9775 25.4375 7.4375 25.4375 C7.68165046 14.96084811 7.68165046 14.96084811 2.4375 6.4375 C-1.8998229 5.86464603 -3.83766578 5.88984748 -7.375 8.5625 Z " fill="#FFFFFF" transform="translate(995.5625,839.5625)"/>
<path d="M0 0 C0.8863916 -0.01015137 1.7727832 -0.02030273 2.68603516 -0.03076172 C11.73823919 0.08854522 19.08321636 2.09133005 25.70703125 8.4375 C32.19900557 15.94063962 31.4375 22.1273948 31.4375 32.4375 C17.2475 32.4375 3.0575 32.4375 -11.5625 32.4375 C-9.93091468 45.92251413 -9.93091468 45.92251413 -2.0625 55.4375 C4.49899982 57.31221423 11.48432449 57.49220554 17.9375 55.1875 C22.90406486 51.98197009 22.90406486 51.98197009 26.4375 47.4375 C28.8125 47.6875 28.8125 47.6875 31.4375 48.4375 C32.6015625 50.484375 32.6015625 50.484375 33.4375 52.4375 C26.39896446 61.51297562 19.07746601 66.89837111 7.625 68.9375 C-4.46071462 70.2055094 -15.3525749 68.19223703 -25.5625 61.4375 C-31.82387239 56.16077891 -35.29300109 48.42929793 -36.5625 40.4375 C-37.34450396 29.80525383 -36.1289929 20.65068745 -29.21875 12.25 C-20.66913584 2.89381847 -12.56861603 0.10289583 0 0 Z M-7.375 8.5625 C-11.78757428 14.36188334 -11.5625 17.9370239 -11.5625 25.4375 C-5.2925 25.4375 0.9775 25.4375 7.4375 25.4375 C7.68165046 14.96084811 7.68165046 14.96084811 2.4375 6.4375 C-1.8998229 5.86464603 -3.83766578 5.88984748 -7.375 8.5625 Z " fill="#FFFFFF" transform="translate(923.5625,839.5625)"/>
<path d="M0 0 C0.8863916 -0.01015137 1.7727832 -0.02030273 2.68603516 -0.03076172 C11.73823919 0.08854522 19.08321636 2.09133005 25.70703125 8.4375 C32.19900557 15.94063962 31.4375 22.1273948 31.4375 32.4375 C17.2475 32.4375 3.0575 32.4375 -11.5625 32.4375 C-9.93091468 45.92251413 -9.93091468 45.92251413 -2.0625 55.4375 C4.49899982 57.31221423 11.48432449 57.49220554 17.9375 55.1875 C22.90406486 51.98197009 22.90406486 51.98197009 26.4375 47.4375 C28.8125 47.6875 28.8125 47.6875 31.4375 48.4375 C32.6015625 50.484375 32.6015625 50.484375 33.4375 52.4375 C26.39896446 61.51297562 19.07746601 66.89837111 7.625 68.9375 C-4.46071462 70.2055094 -15.3525749 68.19223703 -25.5625 61.4375 C-31.82387239 56.16077891 -35.29300109 48.42929793 -36.5625 40.4375 C-37.34450396 29.80525383 -36.1289929 20.65068745 -29.21875 12.25 C-20.66913584 2.89381847 -12.56861603 0.10289583 0 0 Z M-7.375 8.5625 C-11.78757428 14.36188334 -11.5625 17.9370239 -11.5625 25.4375 C-5.2925 25.4375 0.9775 25.4375 7.4375 25.4375 C7.68165046 14.96084811 7.68165046 14.96084811 2.4375 6.4375 C-1.8998229 5.86464603 -3.83766578 5.88984748 -7.375 8.5625 Z " fill="#FFFFFF" transform="translate(644.5625,839.5625)"/>
<path d="M0 0 C0.495 4.455 0.495 4.455 1 9 C1.53109375 8.51789062 2.0621875 8.03578125 2.609375 7.5390625 C3.31578125 6.90742187 4.0221875 6.27578125 4.75 5.625 C5.44609375 4.99851562 6.1421875 4.37203125 6.859375 3.7265625 C11.95982545 -0.38730447 16.32832639 -0.53692453 22.78515625 -0.45703125 C26.91820681 0.13053487 28.93112843 1.49036389 31.828125 4.39453125 C34.75269341 8.40118997 34.56617556 13.26838996 34 18 C32.13097505 22.0370939 30.5755775 23.63885333 26.8125 26 C22.15014618 27.22291248 18.40733465 27.04138175 14 25 C11.79804821 22.78823996 11.06121954 21.53873192 10.70703125 18.421875 C10.74183594 17.54015625 10.77664063 16.6584375 10.8125 15.75 C10.85310547 14.41195312 10.85310547 14.41195312 10.89453125 13.046875 C10.92933594 12.37140625 10.96414063 11.6959375 11 11 C6.93191213 12.84913085 3.71658045 14.4075603 1 18 C0.6264691 20.92386474 0.4852533 23.46108656 0.5390625 26.37890625 C0.53997894 27.1873851 0.54089539 27.99586395 0.5418396 28.82884216 C0.54787054 30.53431079 0.56360147 32.23976907 0.58837891 33.94506836 C0.62492129 36.55687418 0.62939793 39.16726192 0.62890625 41.77929688 C0.6387366 43.43751227 0.65039324 45.09571806 0.6640625 46.75390625 C0.66628815 47.53520401 0.66851379 48.31650177 0.67080688 49.12147522 C0.73759567 52.93014896 0.83798619 54.75697928 3 58 C5.41607417 58.79798218 5.41607417 58.79798218 8.125 59.1875 C9.49011719 59.42533203 9.49011719 59.42533203 10.8828125 59.66796875 C11.58148437 59.77753906 12.28015625 59.88710938 13 60 C13 62.31 13 64.62 13 67 C-1.85 67 -16.7 67 -32 67 C-32 64.69 -32 62.38 -32 60 C-31.15115234 59.80083984 -31.15115234 59.80083984 -30.28515625 59.59765625 C-29.55167969 59.42105469 -28.81820312 59.24445312 -28.0625 59.0625 C-27.33160156 58.88847656 -26.60070312 58.71445312 -25.84765625 58.53515625 C-24.00030102 58.16112431 -24.00030102 58.16112431 -23 57 C-22.70670595 50.94551978 -22.68588076 44.88854173 -22.64990234 38.82763672 C-22.63335779 36.78292446 -22.60608764 34.73826968 -22.56787109 32.69384766 C-22.51307576 29.7487176 -22.49122224 26.80494634 -22.4765625 23.859375 C-22.44255844 22.49193146 -22.44255844 22.49193146 -22.40786743 21.09686279 C-22.42292213 16.56843019 -22.51718767 14.6279461 -25.35693359 10.93457031 C-28.04011135 8.97064083 -29.71748692 8.28135826 -33 8 C-33 5.69 -33 3.38 -33 1 C-21.97991499 0.16941486 -11.05016019 -0.12308347 0 0 Z " fill="#FFFFFF" transform="translate(712,840)"/>
<path d="M0 0 C13.53 0 27.06 0 41 0 C41 1.98 41 3.96 41 6 C38.36 6.33 35.72 6.66 33 7 C36.26673333 15.99582848 40.03849737 24.6861728 44.05249023 33.37011719 C44.62398804 34.61583496 44.62398804 34.61583496 45.20703125 35.88671875 C45.5522583 36.63139404 45.89748535 37.37606934 46.25317383 38.14331055 C47 40 47 40 47 42 C47.66 42 48.32 42 49 42 C49.16218018 41.47647949 49.32436035 40.95295898 49.49145508 40.41357422 C51.81921638 33.14676565 54.85252089 26.25583669 57.94726562 19.2890625 C58.33978516 18.391875 58.73230469 17.4946875 59.13671875 16.5703125 C59.49467529 15.76352051 59.85263184 14.95672852 60.22143555 14.12548828 C61.1719752 11.90777195 61.1719752 11.90777195 61 9 C58.03 8.01 55.06 7.02 52 6 C52 4.02 52 2.04 52 0 C61.24 0 70.48 0 80 0 C80 1.98 80 3.96 80 6 C78.63875 6.5878125 78.63875 6.5878125 77.25 7.1875 C71.57978595 10.34973476 69.29334878 15.06461078 66.609375 20.8203125 C66.30328812 21.47301117 65.99720123 22.12570984 65.68183899 22.79818726 C64.69729558 24.90382854 63.72323633 27.01411173 62.75 29.125 C62.07757992 30.57105067 61.40497183 32.01701393 60.73217773 33.46289062 C55.90562796 43.8723291 51.29246783 54.35797114 47 65 C42.38 65 37.76 65 33 65 C32.28457031 63.37578125 31.56914063 61.7515625 30.83203125 60.078125 C28.45138251 54.68368486 26.04824808 49.29952638 23.63571167 43.91929626 C21.87332009 39.98077926 20.1429857 36.02998596 18.43583679 32.06723022 C17.327562 29.50750186 16.19783113 26.95760463 15.06356812 24.40930176 C14.2639136 22.5940839 13.49070247 20.76729073 12.71801758 18.94042969 C9.60630229 11.81071841 9.60630229 11.81071841 3.609375 7.21484375 C2.41828125 6.81394531 1.2271875 6.41304687 0 6 C0 4.02 0 2.04 0 0 Z " fill="#FFFFFF" transform="translate(529,842)"/>
<path d="M0 0 C3.26269829 1.29148474 4.5619688 2.48644618 6.8125 5.125 C8.48087822 9.16423148 8.69030273 12.69129724 8 17 C5.91861419 21.0884364 4.24572182 23.32286433 0 25 C-4.38605167 25.62941829 -8.99829606 26.04352395 -13.015625 23.94921875 C-16.01415724 21.48197984 -17.8300718 19.48565795 -18.2734375 15.609375 C-18.58136511 6.94002851 -18.58136511 6.94002851 -15.625 3.375 C-10.82571773 -0.96720777 -6.2548222 -0.49785126 0 0 Z " fill="#800020" transform="translate(1144,883)"/>
</svg>
