<svg width="14" height="8" viewBox="0 0 14 8" fill="none" xmlns="http://www.w3.org/2000/svg">
<path d="M13.8906 0.982422L9.54025 5.95492C9.22347 6.31705 8.83293 6.60727 8.39482 6.80611C7.9567 7.00495 7.48113 7.10782 7 7.10782C6.51887 7.10782 6.0433 7.00495 5.60519 6.80611C5.16707 6.60727 4.77653 6.31705 4.45975 5.95492L0.109375 0.982422H13.8906ZM1.6045 0.982422L5.30575 5.21355C5.51693 5.45503 5.77732 5.64856 6.06943 5.78116C6.36155 5.91376 6.67864 5.98236 6.99944 5.98236C7.32024 5.98236 7.63733 5.91376 7.92944 5.78116C8.22156 5.64856 8.48194 5.45503 8.69312 5.21355L12.3955 0.982422H1.6045Z" fill="#013220"/>
</svg>
