<svg width="45" height="45" viewBox="0 0 45 45" fill="none" xmlns="http://www.w3.org/2000/svg">
<path d="M30.2496 1.65867C31.6417 0.594022 33.3985 0.123404 35.1364 0.349574C35.8891 0.451648 36.5705 0.714488 37.2493 1.04368C37.8975 1.36266 38.6528 1.79902 39.5561 2.3196L39.6659 2.38339C40.5667 2.90142 41.3246 3.34034 41.9243 3.74353C42.5495 4.16203 43.1211 4.61881 43.583 5.2236C44.6522 6.61435 45.1243 8.37002 44.8946 10.1078C44.7784 10.8452 44.5431 11.5588 44.198 12.2208C43.8815 12.8689 43.4426 13.6243 42.922 14.5251L29.8413 37.1599C29.0147 38.6617 27.7666 39.8885 26.2508 40.6891L21.5018 43.3226C20.6597 43.7896 19.9197 44.2005 19.2919 44.4761C18.8681 44.672 18.4215 44.8143 17.9624 44.8997C17.8162 44.9297 17.6676 44.9467 17.5184 44.9507H2.20734C1.69975 44.9507 1.21294 44.7491 0.85402 44.3902C0.495098 44.0312 0.293457 43.5444 0.293457 43.0368C0.293457 42.5293 0.495098 42.0424 0.85402 41.6835C1.21294 41.3246 1.69975 41.123 2.20734 41.123H13.2721L13.2568 40.9954C13.1891 40.1677 13.155 39.3377 13.1548 38.5073L13.0629 33.0795C12.9972 31.3673 13.4355 29.6735 14.3235 28.2081L27.4068 5.5732C27.9248 4.6724 28.3638 3.9145 28.7669 3.31482C29.188 2.68962 29.6448 2.12055 30.247 1.65612M34.6336 4.14162C33.9014 4.04739 33.1616 4.24542 32.5743 4.69281C32.4391 4.79744 32.2502 4.98628 31.9389 5.45071C31.5754 6.01257 31.2291 6.5853 30.9003 7.1681L30.9564 7.18852C31.9363 7.5713 33.4011 8.25009 35.4987 9.45966C37.5683 10.6539 38.8646 11.6849 39.6735 12.4887C40.1788 11.616 40.5207 11.0188 40.7581 10.534C41.003 10.0313 41.0745 9.77609 41.0975 9.60512C41.1896 8.87542 40.9917 8.13871 40.5463 7.55343C40.4416 7.41563 40.2528 7.22935 39.7884 6.91547C39.1035 6.47794 38.4056 6.06095 37.6959 5.66507C36.7262 5.10366 36.0805 4.73364 35.5625 4.48101C35.0598 4.23603 34.8046 4.16458 34.6336 4.14162ZM37.4381 15.6964L37.4458 15.7168L37.4636 15.7525L37.484 15.7933L37.4789 15.7857L37.433 15.6836L37.4381 15.6964ZM37.433 15.6836L37.4305 15.6734V15.6785M37.4636 15.7627C37.3354 15.584 37.1919 15.4166 37.0349 15.2626C36.5246 14.7445 35.5038 13.8846 33.5848 12.7745C31.6148 11.6389 30.3236 11.052 29.5631 10.7534C29.3622 10.6747 29.1588 10.6024 28.9532 10.5365L17.6358 30.122C17.096 30.9854 16.8342 31.9937 16.8856 33.0106L16.9698 37.9816C18.2202 38.1603 19.3277 38.7957 20.1136 39.7118L24.3931 37.3386C25.3008 36.8757 26.0446 36.1453 26.5239 35.2461L37.6244 16.0383C37.5711 15.9569 37.5226 15.8726 37.4789 15.7857L37.4636 15.7627Z" fill="white"/>
</svg>
